<svg height="512pt" viewBox="0 0 512 512" width="512pt" xmlns="http://www.w3.org/2000/svg"><path d="m94 256.128906c25.363281 0 46-17.945312 46-40 0-22.058594-20.636719-40-46-40s-46 17.941406-46 40c0 22.054688 20.636719 40 46 40zm0-60c14.335938 0 26 8.96875 26 20 0 11.027344-11.664062 20-26 20s-26-8.972656-26-20c0-11.03125 11.664062-20 26-20zm0 0"/><path d="m180 339.078125c-2.628906 0-5.210938 1.070313-7.070312 2.933594-1.859376 1.859375-2.929688 4.4375-2.929688 7.066406 0 2.640625 1.070312 5.210937 2.929688 7.070313 1.859374 1.871093 4.441406 2.929687 7.070312 2.929687s5.210938-1.058594 7.070312-2.929687c1.859376-1.859376 2.929688-4.429688 2.929688-7.070313 0-2.628906-1.070312-5.207031-2.929688-7.066406-1.859374-1.863281-4.441406-2.933594-7.070312-2.933594zm0 0"/><path d="m510.722656 101.996094c-.703125-4.214844-4.003906-7.515625-8.21875-8.21875-29.761718-4.964844-60.265625 4.808594-81.601562 26.140625l-26.84375 26.84375-78.0625-7.445313v-17.316406c0-23.160156-18.839844-42-42-42h-55v-60h7.667968c5.523438 0 10-4.476562 10-10s-4.476562-10-10-10h-137.332031c-5.519531 0-10 4.476562-10 10s4.480469 10 10 10h7.667969v60h-55c-23.160156 0-42 18.839844-42 42v54.128906c0 5.519532 4.476562 10 10 10s10-4.480468 10-10v-54.128906c0-12.132812 9.867188-22 22-22h232c12.132812 0 22 9.867188 22 22v15.410156l-65.957031-6.292968c-2.957031-.28125-5.910157.773437-8.019531 2.886718l-28.992188 28.992188c-2.25 2.25-3.296875 5.441406-2.8125 8.585937.480469 3.148438 2.433594 5.878907 5.257812 7.351563l26.804688 13.976562-5.878906 5.878906c-3.90625 3.90625-3.90625 10.238282 0 14.144532 1.953125 1.953125 4.511718 2.925781 7.070312 2.925781s5.121094-.972656 7.074219-2.925781l10.320313-10.324219 22.710937 11.84375-5.546875 5.542969c-3.902344 3.90625-3.902344 10.238281 0 14.144531 1.953125 1.953125 4.515625 2.929687 7.074219 2.929687 2.558593 0 5.117187-.976562 7.070312-2.929687l9.992188-9.992187 22.679687 11.828124-42.039062 42.039063-36.492188-8.382813c-3.363281-.773437-6.875.238282-9.3125 2.671876l-26.777344 26.78125h-129.226562c-5.523438 0-10 4.476562-10 10v65.707031c0 22.722656 18.484375 41.207031 41.207031 41.207031h131.585938c22.210937 0 40.363281-17.667969 41.167969-39.6875l19.601562 40.082031c1.417969 2.902344 4.152344 4.9375 7.339844 5.46875.546875.089844 1.097656.136719 1.644531.136719.832031 0 1.65625-.117188 2.453125-.316406v8.316406c0 12.132812-9.867188 22-22 22h-232c-12.132812 0-22-9.867188-22-22v-173.871094c0-5.523437-4.476562-10-10-10s-10 4.476563-10 10v173.871094c0 23.160156 18.839844 42 42 42h22v10c0 16.542969 13.457031 30 30 30s30-13.457031 30-30v-10h68v10c0 16.542969 13.457031 30 30 30s30-13.457031 30-30v-10h22c23.160156 0 42-18.839844 42-42v-26.3125l16.195312-16.195312c2.4375-2.4375 3.449219-5.964844 2.671876-9.324219l-8.429688-36.429688 42.085938-42.085937 11.828124 22.679687-9.992187 9.992188c-3.90625 3.902343-3.90625 10.234375 0 14.140625 1.953125 1.953125 4.511719 2.929687 7.070313 2.929687 2.558593 0 5.121093-.976562 7.074218-2.929687l5.542969-5.542969 11.84375 22.707031-10.324219 10.324219c-3.902344 3.90625-3.902344 10.238281 0 14.144531 1.953125 1.953125 4.511719 2.925782 7.074219 2.925782 2.558594 0 5.117187-.976563 7.070313-2.925782l5.875-5.878906 13.980468 26.804688c1.472656 2.820312 4.199219 4.773437 7.347656 5.257812.507813.078125 1.015626.117188 1.519532.117188 2.632812 0 5.179687-1.039063 7.070312-2.929688l28.992188-28.992188c2.109375-2.109374 3.167968-5.050781 2.882812-8.023437l-15.644531-164.015625 26.84375-26.84375c21.335937-21.335938 31.109375-51.839844 26.144531-81.597656zm-393.722656-81.996094h82v60h-82zm-13 462c0 5.515625-4.484375 10-10 10s-10-4.484375-10-10v-10h20zm128 0c0 5.515625-4.484375 10-10 10s-10-4.484375-10-10v-10h20zm-15.191406-314.5 16.027344-16.023438 142.882812 13.628907-56.046875 56.046875zm6.984375 228.5h-131.585938c-11.691406 0-21.207031-9.515625-21.207031-21.207031v-15.707031h72c5.523438 0 10-4.480469 10-10 0-5.523438-4.476562-10-10-10h-72v-20h115.707031c.445313.316406.910157.613281 1.410157.855468l56.882812 27.742188v27.109375c0 11.691406-9.515625 21.207031-21.207031 21.207031zm229.230469-24.335938-16.023438 16.027344-53.652344-102.863281 56.046875-56.046875zm-88.957032-95.839843c-.019531.019531-.042968.042969-.0625.066406l-55.632812 55.628906c-2.4375 2.4375-3.445313 5.960938-2.667969 9.324219l8.425781 36.429688-17.75 17.753906-27.097656-55.402344c-.976562-2-2.597656-3.617188-4.601562-4.59375l-55.195313-26.921875 17.746094-17.746094 36.492187 8.382813c3.355469.773437 6.875-.238282 9.3125-2.671875l162.011719-162.011719c15.019531-15.019531 35.820313-22.753906 56.796875-21.40625 1.34375 20.984375-6.386719 41.777344-21.40625 56.796875zm0 0"/><path d="m10 226.128906c2.628906 0 5.210938-1.070312 7.070312-2.929687 1.859376-1.871094 2.929688-4.4375 2.929688-7.070313 0-2.628906-1.070312-5.207031-2.929688-7.070312-1.859374-1.867188-4.441406-2.929688-7.070312-2.929688s-5.210938 1.0625-7.070312 2.929688c-1.859376 1.863281-2.929688 4.429687-2.929688 7.070312 0 2.632813 1.070312 5.210938 2.929688 7.070313 1.859374 1.859375 4.441406 2.929687 7.070312 2.929687zm0 0"/></svg>